<?xml version="1.0" standalone="no"?>
<!DOCTYPE svg PUBLIC "-//W3C//DTD SVG 20010904//EN"
 "http://www.w3.org/TR/2001/REC-SVG-20010904/DTD/svg10.dtd">
<svg version="1.0" xmlns="http://www.w3.org/2000/svg"
 width="7500.000000pt" height="5000.000000pt" viewBox="0 0 7500.000000 5000.000000"
 preserveAspectRatio="xMidYMid meet">

<g transform="translate(0.000000,5000.000000) scale(0.100000,-0.100000)"
fill="#000000" stroke="none">
<path d="M55995 38694 c-33 -2 -141 -8 -240 -14 -539 -32 -843 -107 -1079
-264 -143 -95 -231 -207 -276 -351 -71 -224 22 -562 199 -728 102 -96 215 -90
609 33 340 105 467 130 627 119 209 -14 329 -130 504 -489 84 -174 112 -213
169 -237 45 -19 62 -9 117 61 50 63 135 116 186 116 101 0 147 -174 104 -397
-21 -107 -19 -157 9 -235 23 -65 107 -201 162 -263 l27 -29 74 79 c183 198
232 255 266 313 144 246 291 778 338 1219 6 62 10 172 7 245 -3 117 -7 140
-30 190 -30 65 -27 71 41 87 23 5 45 12 48 14 6 6 -92 37 -118 37 -11 0 -19
11 -24 37 -26 141 -108 257 -213 299 l-37 16 37 -39 c30 -31 68 -96 68 -117 0
-3 -30 17 -66 45 -164 124 -376 194 -714 234 -129 15 -648 28 -795 19z"/>
<path d="M32400 35920 c-42 -42 -12 -90 57 -90 44 0 73 23 73 57 0 50 -90 73
-130 33z"/>
<path d="M32907 35884 c-28 -28 17 -73 54 -54 32 17 22 54 -16 58 -17 2 -34 0
-38 -4z"/>
<path d="M31828 35799 c-25 -14 -24 -65 1 -79 47 -24 111 -5 111 35 0 13 -7
31 -16 39 -17 18 -70 21 -96 5z"/>
<path d="M32642 35674 c-28 -19 -29 -64 -2 -89 25 -23 95 -22 121 1 25 22 24
59 -1 84 -24 24 -86 27 -118 4z"/>
<path d="M32102 35644 c-27 -19 -29 -65 -4 -86 52 -45 142 -16 142 46 0 47
-91 73 -138 40z"/>
<path d="M33071 35616 c-14 -17 -5 -43 18 -49 23 -6 61 10 61 26 0 34 -56 50
-79 23z"/>
<path d="M32353 35385 c-61 -26 -73 -97 -22 -139 67 -57 199 -20 199 56 0 42
-17 68 -55 84 -43 17 -81 17 -122 -1z"/>
<path d="M31615 35345 c-39 -38 -27 -76 29 -95 66 -21 133 29 106 79 -25 47
-96 55 -135 16z"/>
<path d="M33802 35300 c-29 -12 -37 -35 -24 -65 21 -45 97 -42 122 5 9 16 6
25 -14 45 -26 26 -46 30 -84 15z"/>
<path d="M33203 35284 c-5 -14 11 -34 27 -34 3 0 11 4 19 9 19 12 6 41 -19 41
-11 0 -23 -7 -27 -16z"/>
<path d="M33385 35255 c-39 -38 -27 -76 28 -94 55 -18 107 11 107 60 0 58 -89
81 -135 34z"/>
<path d="M33627 35224 c-27 -27 12 -62 54 -49 33 11 21 49 -16 53 -17 2 -34 0
-38 -4z"/>
<path d="M34032 35178 c-18 -18 -15 -36 8 -48 28 -15 62 4 58 33 -3 25 -46 35
-66 15z"/>
<path d="M33760 35115 c-6 -8 -10 -22 -8 -32 4 -24 66 -25 81 -1 23 36 -45 67
-73 33z"/>
<path d="M33484 35050 c-39 -16 -35 -28 23 -69 63 -44 87 -43 99 6 13 51 -60
88 -122 63z"/>
<path d="M32046 35029 c-32 -25 -35 -68 -6 -94 31 -28 100 -31 133 -5 57 45
18 120 -63 120 -23 0 -48 -8 -64 -21z"/>
<path d="M33824 35006 c-15 -12 -17 -18 -8 -33 6 -10 21 -18 34 -18 13 0 28 8
34 18 9 15 7 21 -8 33 -11 8 -23 14 -26 14 -3 0 -15 -6 -26 -14z"/>
<path d="M32465 34906 c-9 -7 -15 -21 -13 -32 2 -14 12 -19 38 -19 30 0 35 3
35 24 0 29 -35 45 -60 27z"/>
<path d="M32738 34769 c-38 -21 -7 -66 37 -55 27 7 33 34 13 54 -14 14 -27 15
-50 1z"/>
<path d="M57360 34563 c-105 -18 -317 -106 -725 -301 -312 -149 -453 -195
-679 -223 -114 -14 -381 -6 -491 14 l-70 12 -160 -139 c-244 -213 -393 -355
-515 -490 -436 -483 -672 -924 -820 -1531 -8 -35 -47 -76 -300 -319 -649 -622
-916 -851 -1095 -937 -98 -47 -107 -45 -321 89 -264 165 -889 572 -1404 913
-717 475 -1339 885 -1433 945 l-89 57 -106 5 c-247 11 -438 -57 -546 -195 -79
-100 -81 -87 56 -280 727 -1019 1629 -2091 2226 -2645 332 -309 512 -457 762
-623 370 -246 667 -347 902 -306 136 23 642 198 917 317 69 30 126 52 128 50
2 -1 -3 -153 -12 -337 -37 -831 -52 -1439 -61 -2514 -6 -694 7 -1722 25 -1879
9 -91 19 -95 247 -112 104 -8 277 -23 384 -34 730 -73 859 -81 1290 -87 316
-4 433 -2 585 11 526 45 1011 150 1546 332 304 103 785 297 909 366 86 47 189
127 216 167 32 47 31 77 -5 621 -29 424 -51 800 -72 1225 -14 302 -24 1604
-12 1616 7 7 28 -17 63 -68 30 -43 140 -202 245 -353 295 -424 314 -454 325
-507 35 -173 20 -1151 -41 -2620 l-21 -511 30 -44 c59 -86 164 -164 300 -222
138 -59 341 -110 485 -122 l73 -7 28 119 c407 1725 646 2894 646 3166 0 244
-277 1571 -565 2703 -408 1608 -806 2770 -1133 3308 -212 349 -556 689 -1022
1009 -215 147 -574 351 -635 361 -16 2 -41 3 -55 0z"/>
<path d="M37066 32889 c-14 -11 -26 -29 -26 -39 0 -25 46 -60 79 -60 40 0 71
26 71 60 0 56 -73 79 -124 39z"/>
<path d="M37572 32848 c-28 -28 1 -64 43 -54 18 5 25 13 25 30 0 33 -43 49
-68 24z"/>
<path d="M36492 32764 c-24 -17 -29 -56 -9 -72 43 -36 117 -15 117 33 0 27
-33 55 -65 55 -11 0 -31 -7 -43 -16z"/>
<path d="M37306 32639 c-15 -12 -26 -30 -26 -44 0 -48 73 -80 123 -54 29 16
37 28 37 61 0 52 -85 76 -134 37z"/>
<path d="M36775 32618 c-44 -25 -47 -67 -8 -98 32 -25 83 -22 114 6 58 52 -35
133 -106 92z"/>
<path d="M37743 32594 c-7 -3 -13 -16 -13 -30 0 -31 44 -44 68 -20 29 29 -14
67 -55 50z"/>
<path d="M36989 32331 c-36 -37 -38 -79 -6 -109 88 -83 245 -17 202 84 -15 37
-52 54 -116 54 -42 0 -55 -5 -80 -29z"/>
<path d="M36288 32325 c-37 -20 -39 -76 -6 -99 71 -50 181 32 119 88 -26 24
-81 29 -113 11z"/>
<path d="M37864 32255 c-4 -9 -2 -21 4 -27 16 -16 47 -5 47 17 0 26 -42 34
-51 10z"/>
<path d="M38446 32254 c-35 -35 -2 -84 56 -84 29 0 68 30 68 53 0 41 -92 64
-124 31z"/>
<path d="M38058 32235 c-80 -44 -4 -140 84 -106 56 21 60 79 8 106 -36 19 -57
18 -92 0z"/>
<path d="M38291 32186 c-22 -26 -6 -48 31 -44 28 2 33 7 33 28 0 19 -6 26 -26
28 -14 2 -31 -4 -38 -12z"/>
<path d="M38696 32144 c-19 -19 -20 -26 -4 -42 22 -22 78 -8 78 19 0 13 -31
39 -45 39 -7 0 -21 -7 -29 -16z"/>
<path d="M38428 32089 c-45 -26 5 -84 51 -60 26 15 27 47 2 61 -24 12 -31 12
-53 -1z"/>
<path d="M38150 32017 c-35 -18 -32 -30 22 -71 54 -41 59 -42 81 -18 50 55
-33 126 -103 89z"/>
<path d="M36725 32008 c-79 -43 -46 -128 50 -128 47 0 79 21 90 58 10 33 -42
82 -87 82 -18 0 -42 -6 -53 -12z"/>
<path d="M38474 31966 c-12 -30 4 -47 38 -44 28 2 33 7 33 28 0 21 -5 26 -33
28 -22 2 -34 -2 -38 -12z"/>
<path d="M37122 31871 c-8 -4 -12 -17 -10 -27 2 -14 12 -19 38 -19 31 0 35 3
35 25 0 19 -6 26 -25 28 -14 1 -31 -2 -38 -7z"/>
<path d="M37387 31733 c-13 -12 -7 -41 9 -47 44 -17 88 10 64 39 -13 15 -61
21 -73 8z"/>
<path d="M32435 29712 c-53 -11 -73 -68 -33 -96 47 -33 128 -9 128 38 0 38
-48 68 -95 58z"/>
<path d="M32904 29646 c-12 -30 4 -47 38 -44 28 2 33 7 33 28 0 21 -5 26 -33
28 -22 2 -34 -2 -38 -12z"/>
<path d="M31822 29568 c-18 -18 -15 -59 6 -74 25 -19 76 -17 95 4 23 25 21 59
-2 72 -27 14 -84 13 -99 -2z"/>
<path d="M32637 29442 c-41 -45 -6 -102 63 -102 48 0 80 24 80 60 0 37 -32 60
-86 60 -27 0 -47 -6 -57 -18z"/>
<path d="M32097 29412 c-41 -46 -6 -102 63 -102 39 0 80 32 80 63 0 51 -106
80 -143 39z"/>
<path d="M33070 29385 c-10 -12 -10 -18 0 -30 26 -32 90 -6 76 30 -7 20 -60
20 -76 0z"/>
<path d="M32354 29160 c-12 -5 -29 -19 -38 -32 -48 -68 15 -146 111 -135 77 8
114 51 99 112 -13 51 -108 81 -172 55z"/>
<path d="M31650 29142 c-24 -7 -60 -44 -60 -62 0 -55 106 -81 148 -37 25 27
27 44 7 70 -14 20 -70 37 -95 29z"/>
<path d="M33211 29070 c-21 -12 -5 -42 21 -38 12 2 23 8 25 15 6 16 -30 34
-46 23z"/>
<path d="M33787 29062 c-22 -24 -21 -45 1 -65 40 -36 112 -15 112 33 0 48 -78
70 -113 32z"/>
<path d="M33382 29030 c-28 -27 -28 -51 1 -78 47 -44 137 -19 137 38 0 56 -92
83 -138 40z"/>
<path d="M33629 28994 c-17 -21 0 -49 31 -49 31 0 48 28 31 49 -8 9 -21 16
-31 16 -10 0 -23 -7 -31 -16z"/>
<path d="M34031 28947 c-20 -24 -2 -48 33 -45 26 2 31 7 31 28 0 19 -6 26 -26
28 -14 2 -31 -3 -38 -11z"/>
<path d="M33757 28893 c-4 -3 -7 -17 -7 -29 0 -39 72 -46 86 -9 4 8 1 22 -6
30 -13 15 -61 21 -73 8z"/>
<path d="M32072 28818 c-65 -18 -69 -98 -6 -124 67 -28 134 3 134 62 0 52 -61
81 -128 62z"/>
<path d="M33470 28812 l-22 -18 56 -38 c62 -42 86 -43 100 -4 21 61 -78 105
-134 60z"/>
<path d="M33822 28778 c-19 -19 -14 -37 13 -50 21 -10 29 -9 43 5 13 13 14 21
6 35 -14 21 -45 27 -62 10z"/>
<path d="M32462 28678 c-31 -31 2 -67 48 -53 35 11 19 65 -20 65 -9 0 -21 -5
-28 -12z"/>
<path d="M32732 28538 c-19 -19 -14 -37 13 -50 28 -13 55 3 55 32 0 28 -46 40
-68 18z"/>
<path d="M13655 26295 c-297 -65 -513 -256 -686 -605 -124 -250 -211 -586
-250 -965 -28 -272 -10 -667 37 -824 31 -105 107 -151 309 -186 101 -18 436
-27 450 -13 4 4 -5 22 -19 41 l-27 35 43 -15 c58 -21 228 -20 340 1 148 28
431 122 471 156 4 4 -20 10 -55 14 -133 13 -248 101 -314 239 -74 156 -84 379
-23 499 17 32 33 45 112 81 50 24 119 64 152 90 59 44 178 163 244 242 l33 40
-27 -50 c-81 -148 -263 -397 -389 -533 -32 -34 -57 -65 -54 -67 10 -11 180
116 266 199 212 205 372 462 500 807 28 74 56 153 63 177 7 23 16 42 20 42 24
0 154 -32 202 -50 89 -33 129 -108 197 -370 78 -300 130 -416 184 -408 17 2
25 17 43 88 60 225 70 519 23 680 -42 147 -130 273 -248 357 -37 26 -90 66
-119 89 -156 126 -347 187 -676 214 -186 15 -727 12 -802 -5z"/>
<path d="M15235 23893 c-21 -47 -54 -104 -72 -129 -51 -67 -80 -77 -200 -75
-95 2 -103 0 -103 -17 0 -14 9 -21 31 -26 41 -8 278 -8 346 0 l52 7 -20 39
-20 39 41 -27 c49 -33 97 -30 184 11 l59 29 -46 13 c-57 17 -135 87 -180 164
l-33 56 -39 -84z"/>
<path d="M35580 22388 c-82 -23 -93 -69 -23 -100 88 -39 283 -11 283 41 0 56
-150 90 -260 59z"/>
<path d="M36693 22328 c-25 -12 -27 -16 -14 -37 12 -19 116 -27 154 -12 34 13
35 38 1 51 -33 13 -113 12 -141 -2z"/>
<path d="M34250 22232 c-85 -42 -23 -95 111 -96 58 0 84 5 110 20 76 45 17 94
-111 94 -51 0 -86 -6 -110 -18z"/>
<path d="M36140 22109 c-53 -10 -95 -39 -95 -64 0 -67 213 -95 323 -43 37 18
42 61 10 81 -50 32 -152 43 -238 26z"/>
<path d="M34889 22071 c-54 -17 -70 -31 -67 -59 2 -20 13 -32 43 -47 57 -28
213 -28 270 0 65 33 55 77 -24 104 -38 12 -182 14 -222 2z"/>
<path d="M37078 22038 c-80 -29 23 -82 112 -58 34 9 41 15 38 33 -5 33 -90 48
-150 25z"/>
<path d="M35427 21766 c-94 -26 -130 -75 -87 -121 53 -56 229 -81 363 -51 167
37 184 126 34 171 -63 19 -242 19 -310 1z"/>
<path d="M33845 21748 c-110 -14 -146 -72 -70 -112 56 -30 211 -30 270 -1 48
24 54 57 15 87 -32 23 -136 36 -215 26z"/>
<path d="M37372 21669 c-51 -20 7 -57 71 -45 44 8 49 32 11 46 -31 12 -51 12
-82 -1z"/>
<path d="M38694 21669 c-38 -11 -58 -33 -50 -54 25 -66 291 -57 291 10 0 46
-145 72 -241 44z"/>
<path d="M37781 21633 c-83 -34 -81 -75 5 -106 66 -24 208 -18 256 10 45 26
45 60 -2 87 -48 29 -197 33 -259 9z"/>
<path d="M38323 21588 c-52 -25 -14 -58 67 -58 57 0 90 13 90 36 0 31 -108 46
-157 22z"/>
<path d="M39238 21538 c-60 -21 -21 -58 62 -58 28 0 60 5 71 10 66 36 -52 78
-133 48z"/>
<path d="M38620 21467 c-78 -39 44 -89 139 -56 39 14 42 45 5 59 -36 14 -114
12 -144 -3z"/>
<path d="M34821 21388 c-71 -11 -120 -35 -127 -64 -7 -29 0 -40 36 -59 105
-54 344 -31 365 35 19 61 -129 109 -274 88z"/>
<path d="M37976 21387 c-22 -7 -41 -17 -43 -22 -1 -6 52 -30 120 -54 117 -42
124 -43 161 -30 70 25 74 67 10 98 -38 19 -197 24 -248 8z"/>
<path d="M38748 21339 c-42 -24 0 -59 72 -59 76 0 117 35 71 60 -25 13 -121
13 -143 -1z"/>
<path d="M35683 21228 c-53 -26 -14 -61 67 -61 59 0 90 13 90 38 0 29 -111 45
-157 23z"/>
<path d="M36288 21069 c-46 -26 -2 -59 78 -59 51 0 84 14 84 35 0 8 -9 19 -19
25 -25 13 -121 13 -143 -1z"/>
<path d="M18505 20713 c-297 -189 -558 -355 -580 -368 l-41 -24 -174 14 c-96
8 -200 17 -230 19 -30 3 -89 8 -130 11 -41 3 -95 8 -120 10 -25 3 -160 14
-300 25 -140 11 -525 43 -855 70 -330 27 -601 46 -603 42 -1 -4 -133 -295
-291 -647 l-289 -640 86 -6 c99 -7 264 -61 440 -144 101 -48 126 -70 94 -83
-29 -12 -125 -5 -172 13 -27 10 -86 18 -150 21 l-105 4 95 -34 c220 -78 311
-117 308 -134 -4 -24 -96 -27 -190 -8 -40 8 -102 17 -138 20 -63 6 -61 4 93
-48 88 -30 163 -58 168 -63 6 -6 3 -15 -7 -24 -26 -21 -161 -15 -284 14 -58
14 -106 24 -108 23 -1 -2 37 -29 85 -61 80 -53 86 -59 66 -68 -30 -13 -93 1
-213 48 -52 21 -124 46 -160 56 -118 34 -99 55 -237 -254 -67 -149 -123 -278
-125 -286 -2 -12 103 -25 602 -72 333 -32 727 -69 875 -84 149 -14 293 -28
320 -30 28 -3 172 -16 320 -30 149 -14 290 -28 313 -30 42 -6 59 3 525 270
265 152 487 282 493 288 14 14 1170 2539 1162 2536 -2 -1 -246 -156 -543 -346z"/>
<path d="M31852 19893 l3 -467 665 -288 c366 -159 710 -308 765 -332 138 -61
483 -211 980 -426 231 -100 486 -211 567 -246 80 -35 151 -64 157 -64 8 0 11
149 11 500 0 468 -1 500 -18 509 -10 5 -290 120 -622 256 -1138 465 -1805 737
-2120 865 -173 71 -332 136 -353 145 l-37 15 2 -467z"/>
<path d="M13830 17149 c-576 -249 -991 -402 -1280 -473 -191 -46 -282 -59
-417 -59 l-112 -1 -7 -55 c-12 -98 3 -417 25 -537 38 -206 111 -420 174 -516
221 -332 823 -581 1821 -753 115 -20 212 -33 216 -28 4 4 28 168 54 363 26
195 101 755 167 1245 65 489 119 898 119 907 0 17 -18 18 -252 18 l-253 0
-255 -111z"/>
<path d="M15150 17253 c0 -8 -77 -449 -315 -1788 -78 -440 -141 -801 -140
-802 1 -3 380 -43 560 -58 219 -18 530 -39 890 -60 364 -21 393 -28 451 -106
66 -90 81 -218 88 -764 7 -446 14 -517 71 -715 140 -481 572 -1452 1201 -2701
l225 -446 52 -21 c296 -122 524 -153 681 -90 28 11 28 12 21 72 -6 58 -6 60
12 45 22 -20 144 -67 283 -109 134 -41 290 -51 390 -26 36 9 69 21 74 26 12
12 1 145 -59 746 -224 2234 -500 3998 -771 4924 -95 324 -207 586 -298 702
-181 228 -988 605 -2376 1109 l-175 64 -432 3 c-238 1 -433 -1 -433 -5z"/>
<path d="M61900 11092 c-36 -27 -108 -75 -160 -106 -103 -62 -465 -243 -596
-297 l-82 -34 -6 -80 c-4 -44 -6 -238 -5 -430 1 -351 -4 -415 -38 -555 -69
-276 -230 -464 -449 -525 -150 -41 -212 -76 -250 -140 -26 -45 -33 -130 -14
-179 l10 -26 -2194 0 -2194 0 28 58 c57 117 80 294 80 631 0 124 -3 257 -7
295 l-6 68 -41 -6 c-23 -4 -111 -9 -196 -13 -295 -11 -545 38 -782 156 l-97
49 -12 -37 c-33 -104 -133 -247 -247 -352 -229 -210 -651 -395 -1062 -464
-263 -45 -415 -156 -461 -339 l-11 -46 -16108 0 -16107 0 -59 29 c-32 16 -128
52 -212 80 l-153 50 -35 -24 c-60 -41 -98 -48 -223 -42 -130 5 -233 33 -356
95 -135 67 -208 127 -310 256 -71 90 -153 167 -260 242 -106 75 -281 173 -290
162 -2 -3 82 -122 247 -351 69 -96 257 -242 391 -304 31 -15 57 -32 57 -38 -1
-19 -48 -45 -112 -61 -54 -14 -77 -15 -162 -5 -247 28 -473 149 -616 330 -123
156 -298 297 -493 396 -89 46 -84 47 -117 -50 -25 -77 -43 -206 -35 -256 4
-21 56 -142 116 -269 60 -127 109 -233 109 -235 0 -3 -2725 -5 -6055 -5
l-6056 0 -24 -25 c-33 -32 -35 -110 -5 -143 l21 -22 6552 0 c51661 -1 56061 0
56084 15 20 13 23 24 23 73 0 63 -5 74 -37 91 -16 8 -952 11 -3715 11 l-3693
0 54 25 c33 16 81 53 126 98 113 114 175 241 215 449 37 185 101 292 325 538
202 222 265 318 287 436 31 168 -91 408 -348 685 -49 52 -107 117 -129 143
l-40 47 -65 -49z m-43256 -2180 c43 -26 113 -79 155 -119 l76 -72 -167 -1
-168 0 -1 78 c0 42 -3 99 -5 126 -7 58 -8 58 110 -12z"/>
</g>
</svg>
