<?xml version="1.0" encoding="utf-8"?>
<!-- Generator: Adobe Illustrator 27.5.0, SVG Export Plug-In . SVG Version: 6.00 Build 0)  -->
<svg version="1.1" xmlns="http://www.w3.org/2000/svg" xmlns:xlink="http://www.w3.org/1999/xlink" x="0px" y="0px"
	 viewBox="0 0 750 500" style="enable-background:new 0 0 750 500;" xml:space="preserve">
<g id="Background_Simple">
	<g>
		<path style="fill:#92E3A9;" d="M675.115,235.994c-20.649-42.596-46.112-81.71-75.537-116.217
			c-31.751-37.236-64.118-62.408-105.874-78.699c-28.27-11.03-57.758-17.341-87.38-18.514
			c-55.082-2.181-100.517,13.181-145.767,51.941c-48.512,41.553-93.769,88.578-141.044,132.217
			c-4.934,4.555-9.888,9.077-14.868,13.555C22.196,294.408-17.851,426.091,37.901,458.28h641.539c0,0,58.355-3.613,43.973-77.06
			C713.347,329.81,696.913,280.961,675.115,235.994z"/>
		<path style="opacity:0.7;fill:#FFFFFF;" d="M675.115,235.994c-20.649-42.596-46.112-81.71-75.537-116.217
			c-31.751-37.236-64.118-62.408-105.874-78.699c-28.27-11.03-57.758-17.341-87.38-18.514
			c-55.082-2.181-100.517,13.181-145.767,51.941c-48.512,41.553-93.769,88.578-141.044,132.217
			c-4.934,4.555-9.888,9.077-14.868,13.555C22.196,294.408-17.851,426.091,37.901,458.28h641.539c0,0,58.355-3.613,43.973-77.06
			C713.347,329.81,696.913,280.961,675.115,235.994z"/>
	</g>
</g>
<g id="Tree">
	<g>
		<path style="fill:#92E3A9;" d="M704.746,293.665c0,38.61-22.84,69.91-51.016,69.91c-28.175,0-51.016-31.3-51.016-69.91
			c0-38.611,22.84-171.312,51.016-171.312C681.905,122.353,704.746,255.055,704.746,293.665z"/>
		<path style="opacity:0.5;fill:#FFFFFF;" d="M704.746,293.665c0,38.61-22.84,69.91-51.016,69.91
			c-28.175,0-51.016-31.3-51.016-69.91c0-38.611,22.84-171.312,51.016-171.312C681.905,122.353,704.746,255.055,704.746,293.665z"/>
		<polygon style="fill:#B2B2B2;" points="682.335,313.865 666.888,319.579 669.987,310.28 662.602,321.164 655.229,323.891 
			654.702,293.356 681.539,257.702 667.156,272.084 669.589,262.083 662.709,276.531 654.553,284.688 653.73,236.981 
			650.807,306.559 625.375,279.609 639.345,298.599 626.172,297.136 642.443,302.812 650.504,313.769 649.094,347.316 
			639.715,340.951 648.803,354.259 644.495,456.79 657.52,456.79 655.313,328.762 		"/>
		<g>
			<path style="fill:#FFFFFF;" d="M681.796,237.132c0,0,0.472,4.687-2.09,8.128c-2.562,3.441-7.187,4.332-7.187,4.332
				s-0.472-4.687,2.09-8.128C677.17,238.024,681.796,237.132,681.796,237.132z"/>
			<path style="fill:#FFFFFF;" d="M697.172,258.735c0,0,0.472,4.687-2.09,8.128c-2.562,3.441-7.187,4.332-7.187,4.332
				s-0.472-4.687,2.09-8.128C692.546,259.627,697.172,258.735,697.172,258.735z"/>
			<path style="fill:#FFFFFF;" d="M697.165,300.797c0,0-1.133,4.572-4.704,6.95c-3.57,2.378-8.226,1.66-8.226,1.66
				s1.133-4.572,4.704-6.95C692.51,300.08,697.165,300.797,697.165,300.797z"/>
			<path style="fill:#FFFFFF;" d="M612.721,300.797c0,0,1.133,4.572,4.704,6.95c3.571,2.378,8.226,1.66,8.226,1.66
				s-1.133-4.572-4.704-6.95C617.376,300.08,612.721,300.797,612.721,300.797z"/>
			<path style="fill:#FFFFFF;" d="M679.406,283.337c0,0,0.472,4.687-2.09,8.128c-2.562,3.441-7.187,4.332-7.187,4.332
				s-0.472-4.687,2.09-8.128C674.78,284.229,679.406,283.337,679.406,283.337z"/>
			<path style="fill:#FFFFFF;" d="M675.423,213.631c0,0,0.472,4.687-2.09,8.128c-2.562,3.441-7.187,4.332-7.187,4.332
				s-0.472-4.687,2.09-8.128C670.797,214.522,675.423,213.631,675.423,213.631z"/>
			<path style="fill:#FFFFFF;" d="M666.261,231.555c0,0,0.472,4.687-2.09,8.128c-2.562,3.441-7.188,4.332-7.188,4.332
				s-0.472-4.687,2.09-8.128C661.636,232.447,666.261,231.555,666.261,231.555z"/>
			<path style="fill:#FFFFFF;" d="M688.01,218.505c0,0,0.472,4.687-2.09,8.128s-7.187,4.332-7.187,4.332s-0.472-4.687,2.09-8.128
				C683.385,219.396,688.01,218.505,688.01,218.505z"/>
			<path style="fill:#FFFFFF;" d="M617.336,218.505c0,0-0.472,4.687,2.09,8.128c2.562,3.441,7.187,4.332,7.187,4.332
				s0.472-4.687-2.09-8.128C621.961,219.396,617.336,218.505,617.336,218.505z"/>
			<path style="fill:#FFFFFF;" d="M677.414,191.723c0,0,0.472,4.687-2.09,8.128c-2.562,3.441-7.187,4.332-7.187,4.332
				s-0.472-4.687,2.09-8.128C672.789,192.615,677.414,191.723,677.414,191.723z"/>
			<path style="fill:#FFFFFF;" d="M672.912,168.451c0,0,1.634,4.418,0.019,8.392c-1.615,3.974-5.868,5.999-5.868,5.999
				s-1.634-4.418-0.019-8.392C668.659,170.476,672.912,168.451,672.912,168.451z"/>
			<path style="fill:#FFFFFF;" d="M640.651,162.37c0,0,4.173,2.186,5.635,6.219c1.463,4.033-0.339,8.385-0.339,8.385
				s-4.173-2.186-5.635-6.219C638.85,166.723,640.651,162.37,640.651,162.37z"/>
			<path style="fill:#FFFFFF;" d="M655.695,190.199c0,0,2.973,3.654,2.726,7.937c-0.246,4.283-3.618,7.572-3.618,7.572
				s-2.973-3.654-2.726-7.937C652.323,193.488,655.695,190.199,655.695,190.199z"/>
			<path style="fill:#FFFFFF;" d="M654.899,148.773c0,0,2.972,3.654,2.726,7.937c-0.246,4.283-3.618,7.572-3.618,7.572
				s-2.972-3.654-2.726-7.937C651.527,152.062,654.899,148.773,654.899,148.773z"/>
			<path style="fill:#FFFFFF;" d="M621.135,237.132c0,0-0.472,4.687,2.09,8.128c2.562,3.441,7.187,4.332,7.187,4.332
				s0.472-4.687-2.09-8.128C625.76,238.024,621.135,237.132,621.135,237.132z"/>
			<path style="fill:#FFFFFF;" d="M612.371,262.625c0,0-0.472,4.687,2.09,8.128c2.562,3.441,7.187,4.332,7.187,4.332
				s0.472-4.687-2.09-8.128C616.997,263.516,612.371,262.625,612.371,262.625z"/>
			<path style="fill:#FFFFFF;" d="M635.633,271.88c0,0-0.472,4.687,2.09,8.128c2.562,3.441,7.187,4.332,7.187,4.332
				s0.472-4.687-2.09-8.128C640.258,272.772,635.633,271.88,635.633,271.88z"/>
			<path style="fill:#FFFFFF;" d="M641.993,236.557c0,0-1.794,4.356-0.325,8.386c1.469,4.03,5.646,6.209,5.646,6.209
				s1.794-4.355,0.325-8.386C646.169,238.736,641.993,236.557,641.993,236.557z"/>
			<path style="fill:#FFFFFF;" d="M625.521,330.551c0,0,4.71,0.086,7.929-2.749c3.219-2.835,3.729-7.518,3.729-7.518
				s-4.71-0.086-7.929,2.749C626.031,325.867,625.521,330.551,625.521,330.551z"/>
			<path style="fill:#FFFFFF;" d="M670.716,325.398c0,0,1.279,4.534,4.924,6.796c3.645,2.262,8.275,1.395,8.275,1.395
				s-1.279-4.533-4.924-6.795C675.346,324.532,670.716,325.398,670.716,325.398z"/>
			<path style="fill:#FFFFFF;" d="M630.775,213.631c0,0-0.472,4.687,2.09,8.128c2.562,3.441,7.187,4.332,7.187,4.332
				s0.472-4.687-2.09-8.128C635.401,214.522,630.775,213.631,630.775,213.631z"/>
			<path style="fill:#FFFFFF;" d="M630.694,192.918c0,0-0.472,4.687,2.09,8.128c2.562,3.441,7.187,4.332,7.187,4.332
				s0.472-4.687-2.09-8.128C635.32,193.81,630.694,192.918,630.694,192.918z"/>
		</g>
	</g>
</g>
<g id="Restaurant">
	<g>
		
			<line style="fill:#FFFFFF;stroke:#263238;stroke-linecap:round;stroke-linejoin:round;stroke-miterlimit:10;" x1="488.26" y1="426.537" x2="488.26" y2="456.767"/>
		<g>
			<polygon style="fill:#92E3A9;stroke:#263238;stroke-linecap:round;stroke-linejoin:round;stroke-miterlimit:10;" points="
				497.409,412.169 467.103,412.169 470.133,456.802 494.378,456.802 			"/>
			
				<rect x="465.252" y="409.726" style="fill:#92E3A9;stroke:#263238;stroke-linecap:round;stroke-linejoin:round;stroke-miterlimit:10;" width="34.008" height="3.779"/>
		</g>
		
			<line style="fill:none;stroke:#263238;stroke-linecap:round;stroke-linejoin:round;stroke-miterlimit:10;" x1="470.174" y1="418.431" x2="472.146" y2="451.154"/>
		
			<line style="fill:none;stroke:#263238;stroke-linecap:round;stroke-linejoin:round;stroke-miterlimit:10;" x1="472.669" y1="418.431" x2="474.314" y2="451.154"/>
		
			<line style="fill:none;stroke:#263238;stroke-linecap:round;stroke-linejoin:round;stroke-miterlimit:10;" x1="475.109" y1="418.431" x2="476.482" y2="451.154"/>
		
			<line style="fill:none;stroke:#263238;stroke-linecap:round;stroke-linejoin:round;stroke-miterlimit:10;" x1="477.665" y1="418.431" x2="478.651" y2="451.154"/>
		
			<line style="fill:none;stroke:#263238;stroke-linecap:round;stroke-linejoin:round;stroke-miterlimit:10;" x1="480.228" y1="418.431" x2="480.819" y2="451.154"/>
	</g>
	<g>
		<g>
			<g>
				
					<rect x="43.545" y="133.566" style="fill:#92E3A9;stroke:#263238;stroke-linecap:round;stroke-linejoin:round;stroke-miterlimit:10;" width="267.63" height="323.224"/>
			</g>
			<g>
				
					<rect x="43.545" y="133.566" style="fill:#263238;stroke:#263238;stroke-linecap:round;stroke-linejoin:round;stroke-miterlimit:10;" width="267.63" height="26.054"/>
			</g>
			<g>
				<g>
					
						<rect x="60.731" y="168.415" style="fill:none;stroke:#263238;stroke-linecap:round;stroke-linejoin:round;stroke-miterlimit:10;" width="12.204" height="7.766"/>
					
						<rect x="96.788" y="168.415" style="fill:none;stroke:#263238;stroke-linecap:round;stroke-linejoin:round;stroke-miterlimit:10;" width="12.204" height="7.766"/>
					
						<rect x="67.943" y="178.954" style="fill:none;stroke:#263238;stroke-linecap:round;stroke-linejoin:round;stroke-miterlimit:10;" width="12.204" height="7.766"/>
				</g>
				<g>
					
						<rect x="287.611" y="191.192" style="fill:none;stroke:#263238;stroke-linecap:round;stroke-linejoin:round;stroke-miterlimit:10;" width="12.204" height="7.766"/>
					
						<rect x="281.509" y="198.958" style="fill:none;stroke:#263238;stroke-linecap:round;stroke-linejoin:round;stroke-miterlimit:10;" width="12.204" height="7.766"/>
					
						<rect x="293.713" y="198.958" style="fill:none;stroke:#263238;stroke-linecap:round;stroke-linejoin:round;stroke-miterlimit:10;" width="12.204" height="7.766"/>
				</g>
				<g>
					
						<rect x="271.224" y="232.114" transform="matrix(-1 -1.224647e-16 1.224647e-16 -1 554.6514 471.9939)" style="fill:none;stroke:#263238;stroke-linecap:round;stroke-linejoin:round;stroke-miterlimit:10;" width="12.204" height="7.766"/>
					
						<rect x="279.326" y="221.578" transform="matrix(-1 -1.224647e-16 1.224647e-16 -1 570.8552 450.9215)" style="fill:none;stroke:#263238;stroke-linecap:round;stroke-linejoin:round;stroke-miterlimit:10;" width="12.204" height="7.766"/>
					
						<rect x="265.122" y="221.578" transform="matrix(-1 -1.224647e-16 1.224647e-16 -1 542.4476 450.9215)" style="fill:none;stroke:#263238;stroke-linecap:round;stroke-linejoin:round;stroke-miterlimit:10;" width="12.204" height="7.766"/>
				</g>
				<g>
					
						<rect x="61.841" y="234.645" style="fill:none;stroke:#263238;stroke-linecap:round;stroke-linejoin:round;stroke-miterlimit:10;" width="12.204" height="7.766"/>
					
						<rect x="53.739" y="244.411" style="fill:none;stroke:#263238;stroke-linecap:round;stroke-linejoin:round;stroke-miterlimit:10;" width="12.204" height="7.766"/>
					
						<rect x="67.943" y="244.411" style="fill:none;stroke:#263238;stroke-linecap:round;stroke-linejoin:round;stroke-miterlimit:10;" width="12.204" height="7.766"/>
				</g>
			</g>
		</g>
		
			<rect x="43.545" y="426.241" style="fill:#BFBFBF;stroke:#263238;stroke-linecap:round;stroke-linejoin:round;stroke-miterlimit:10;" width="267.63" height="30.549"/>
		
			<rect x="149.297" y="284.559" style="fill:#787878;stroke:#263238;stroke-linecap:round;stroke-linejoin:round;stroke-miterlimit:10;" width="43.501" height="172.231"/>
		
			<rect x="154.814" y="284.559" style="fill:#787878;stroke:#263238;stroke-linecap:round;stroke-linejoin:round;stroke-miterlimit:10;" width="37.983" height="172.231"/>
		
			<rect x="158.798" y="295.541" style="fill:#263238;stroke:#263238;stroke-linecap:round;stroke-linejoin:round;stroke-miterlimit:10;" width="30.016" height="75.8"/>
		
			<rect x="158.798" y="393.291" style="fill:#263238;stroke:#263238;stroke-linecap:round;stroke-linejoin:round;stroke-miterlimit:10;" width="30.016" height="52.516"/>
		<g>
			
				<rect x="310.9" y="133.566" style="fill:#92E3A9;stroke:#263238;stroke-linecap:round;stroke-linejoin:round;stroke-miterlimit:10;" width="176.968" height="323.224"/>
			
				<rect x="310.9" y="133.566" style="fill:#263238;stroke:#263238;stroke-linecap:round;stroke-linejoin:round;stroke-miterlimit:10;" width="176.968" height="26.312"/>
			
				<rect x="370.635" y="205.296" style="fill:#263238;stroke:#263238;stroke-linecap:round;stroke-linejoin:round;stroke-miterlimit:10;" width="68.541" height="30.366"/>
			<g>
				
					<rect x="459.465" y="233.645" style="fill:none;stroke:#263238;stroke-linecap:round;stroke-linejoin:round;stroke-miterlimit:10;" width="12.204" height="7.766"/>
				
					<rect x="452.363" y="244.411" style="fill:none;stroke:#263238;stroke-linecap:round;stroke-linejoin:round;stroke-miterlimit:10;" width="12.204" height="7.766"/>
				
					<rect x="466.567" y="244.411" style="fill:none;stroke:#263238;stroke-linecap:round;stroke-linejoin:round;stroke-miterlimit:10;" width="12.204" height="7.766"/>
			</g>
			<g>
				
					<rect x="335.653" y="233.645" style="fill:none;stroke:#263238;stroke-linecap:round;stroke-linejoin:round;stroke-miterlimit:10;" width="12.204" height="7.766"/>
				
					<rect x="327.551" y="244.411" style="fill:none;stroke:#263238;stroke-linecap:round;stroke-linejoin:round;stroke-miterlimit:10;" width="12.204" height="7.766"/>
				
					<rect x="342.755" y="244.411" style="fill:none;stroke:#263238;stroke-linecap:round;stroke-linejoin:round;stroke-miterlimit:10;" width="12.204" height="7.766"/>
			</g>
			<g>
				
					<rect x="329.215" y="168.415" style="fill:none;stroke:#263238;stroke-linecap:round;stroke-linejoin:round;stroke-miterlimit:10;" width="12.204" height="7.766"/>
				
					<rect x="365.272" y="168.415" style="fill:none;stroke:#263238;stroke-linecap:round;stroke-linejoin:round;stroke-miterlimit:10;" width="12.204" height="7.766"/>
				
					<rect x="336.427" y="178.954" style="fill:none;stroke:#263238;stroke-linecap:round;stroke-linejoin:round;stroke-miterlimit:10;" width="12.204" height="7.766"/>
			</g>
			<g>
				
					<rect x="459.574" y="178.954" transform="matrix(-1 -1.224647e-16 1.224647e-16 -1 931.3522 365.6745)" style="fill:none;stroke:#263238;stroke-linecap:round;stroke-linejoin:round;stroke-miterlimit:10;" width="12.204" height="7.766"/>
				
					<rect x="423.517" y="178.954" transform="matrix(-1 -1.224647e-16 1.224647e-16 -1 859.2388 365.6745)" style="fill:none;stroke:#263238;stroke-linecap:round;stroke-linejoin:round;stroke-miterlimit:10;" width="12.204" height="7.766"/>
				
					<rect x="452.363" y="189.494" transform="matrix(-1 -1.224647e-16 1.224647e-16 -1 916.9296 386.7538)" style="fill:none;stroke:#263238;stroke-linecap:round;stroke-linejoin:round;stroke-miterlimit:10;" width="12.204" height="7.766"/>
			</g>
		</g>
		
			<rect x="40.18" y="128.947" style="fill:#FFFFFF;stroke:#263238;stroke-linecap:round;stroke-linejoin:round;stroke-miterlimit:10;" width="271.683" height="23.707"/>
		
			<rect x="311.584" y="128.947" style="fill:#DEDEDE;stroke:#263238;stroke-linecap:round;stroke-linejoin:round;stroke-miterlimit:10;" width="179.648" height="23.707"/>
		
			<rect x="310.615" y="272.512" style="fill:#FFFFFF;stroke:#263238;stroke-linecap:round;stroke-linejoin:round;stroke-miterlimit:10;" width="153.485" height="184.278"/>
		
			<rect x="310.615" y="272.512" style="fill:#263238;stroke:#263238;stroke-linecap:round;stroke-linejoin:round;stroke-miterlimit:10;" width="153.485" height="7.393"/>
		
			<rect x="328.122" y="312.013" style="fill:#9E9E9E;stroke:#263238;stroke-linecap:round;stroke-linejoin:round;stroke-miterlimit:10;" width="109.319" height="114.525"/>
		
			<rect x="338.082" y="312.013" style="fill:#263238;stroke:#263238;stroke-linecap:round;stroke-linejoin:round;stroke-miterlimit:10;" width="99.359" height="114.525"/>
		
			<rect x="201.567" y="312.013" style="fill:#9E9E9E;stroke:#263238;stroke-linecap:round;stroke-linejoin:round;stroke-miterlimit:10;" width="97.056" height="114.525"/>
		
			<rect x="209.406" y="312.013" style="fill:#263238;stroke:#263238;stroke-linecap:round;stroke-linejoin:round;stroke-miterlimit:10;" width="89.217" height="114.525"/>
		
			<rect x="52.609" y="312.013" style="fill:#9E9E9E;stroke:#263238;stroke-linecap:round;stroke-linejoin:round;stroke-miterlimit:10;" width="88.109" height="114.525"/>
		
			<rect x="61.587" y="312.013" style="fill:#263238;stroke:#263238;stroke-linecap:round;stroke-linejoin:round;stroke-miterlimit:10;" width="79.131" height="114.525"/>
		
			<rect x="463.934" y="272.512" style="fill:#DEDEDE;stroke:#263238;stroke-linecap:round;stroke-linejoin:round;stroke-miterlimit:10;" width="150.191" height="184.278"/>
		
			<rect x="463.934" y="272.512" style="fill:#263238;stroke:#263238;stroke-linecap:round;stroke-linejoin:round;stroke-miterlimit:10;" width="150.191" height="7.485"/>
		<g>
			
				<rect x="303.546" y="260.831" style="fill:#FFFFFF;stroke:#263238;stroke-linecap:round;stroke-linejoin:round;stroke-miterlimit:10;" width="160.635" height="14.083"/>
			
				<rect x="464.007" y="260.831" style="fill:#DEDEDE;stroke:#263238;stroke-linecap:round;stroke-linejoin:round;stroke-miterlimit:10;" width="157.188" height="14.083"/>
		</g>
		
			<rect x="488.63" y="312.013" style="fill:#FFFFFF;stroke:#263238;stroke-linecap:round;stroke-linejoin:round;stroke-miterlimit:10;" width="109.319" height="114.525"/>
		
			<rect x="488.63" y="312.013" style="fill:#263238;stroke:#263238;stroke-linecap:round;stroke-linejoin:round;stroke-miterlimit:10;" width="102.193" height="114.525"/>
		
			<rect x="310.615" y="426.241" style="fill:#BFBFBF;stroke:#263238;stroke-linecap:round;stroke-linejoin:round;stroke-miterlimit:10;" width="153.485" height="30.549"/>
		
			<rect x="463.934" y="426.241" style="fill:#949494;stroke:#263238;stroke-linecap:round;stroke-linejoin:round;stroke-miterlimit:10;" width="150.191" height="30.549"/>
		<g>
			<polygon style="fill:#FFFFFF;stroke:#263238;stroke-linecap:round;stroke-linejoin:round;stroke-miterlimit:10;" points="
				27.928,319.979 154.645,319.979 179.69,284.559 52.974,284.559 			"/>
			<polygon style="fill:#DEDEDE;stroke:#263238;stroke-linecap:round;stroke-linejoin:round;stroke-miterlimit:10;" points="
				154.645,319.979 179.69,319.979 179.69,284.559 			"/>
		</g>
		<g>
			<polygon style="fill:#FFFFFF;stroke:#263238;stroke-linecap:round;stroke-linejoin:round;stroke-miterlimit:10;" points="
				162.522,319.979 274.489,319.979 299.534,284.559 187.567,284.559 			"/>
			<polygon style="fill:#DEDEDE;stroke:#263238;stroke-linecap:round;stroke-linejoin:round;stroke-miterlimit:10;" points="
				274.489,319.979 299.534,319.979 299.534,284.559 			"/>
		</g>
		<g>
			<polygon style="fill:#92E3A9;stroke:#263238;stroke-linecap:round;stroke-linejoin:round;stroke-miterlimit:10;" points="
				304.81,319.979 416.777,319.979 441.822,284.559 329.855,284.559 			"/>
			<polygon style="fill:#92E3A9;stroke:#263238;stroke-linecap:round;stroke-linejoin:round;stroke-miterlimit:10;" points="
				416.777,319.979 441.822,319.979 441.822,284.559 			"/>
		</g>
		<g>
			<polygon style="fill:#92E3A9;stroke:#263238;stroke-linecap:round;stroke-linejoin:round;stroke-miterlimit:10;" points="
				625.712,319.979 505.98,319.979 480.935,284.559 600.667,284.559 			"/>
			<polygon style="fill:#92E3A9;stroke:#263238;stroke-linecap:round;stroke-linejoin:round;stroke-miterlimit:10;" points="
				505.98,319.979 480.935,319.979 480.935,284.559 			"/>
		</g>
		<g>
			
				<rect x="352.057" y="435.198" style="fill:none;stroke:#263238;stroke-linecap:round;stroke-linejoin:round;stroke-miterlimit:10;" width="12.204" height="7.766"/>
			
				<rect x="343.955" y="445.818" style="fill:none;stroke:#263238;stroke-linecap:round;stroke-linejoin:round;stroke-miterlimit:10;" width="12.204" height="7.766"/>
			
				<rect x="360.206" y="445.818" style="fill:none;stroke:#263238;stroke-linecap:round;stroke-linejoin:round;stroke-miterlimit:10;" width="12.204" height="7.766"/>
		</g>
		<g>
			
				<rect x="384.042" y="435.15" style="fill:none;stroke:#263238;stroke-linecap:round;stroke-linejoin:round;stroke-miterlimit:10;" width="12.204" height="7.766"/>
			
				<rect x="420.098" y="435.15" style="fill:none;stroke:#263238;stroke-linecap:round;stroke-linejoin:round;stroke-miterlimit:10;" width="12.204" height="7.766"/>
			
				<rect x="391.253" y="445.69" style="fill:none;stroke:#263238;stroke-linecap:round;stroke-linejoin:round;stroke-miterlimit:10;" width="12.204" height="7.766"/>
		</g>
		<g>
			
				<rect x="534.114" y="435.15" style="fill:none;stroke:#263238;stroke-linecap:round;stroke-linejoin:round;stroke-miterlimit:10;" width="12.204" height="7.766"/>
			
				<rect x="570.17" y="435.15" style="fill:none;stroke:#263238;stroke-linecap:round;stroke-linejoin:round;stroke-miterlimit:10;" width="12.204" height="7.766"/>
			
				<rect x="541.325" y="445.69" style="fill:none;stroke:#263238;stroke-linecap:round;stroke-linejoin:round;stroke-miterlimit:10;" width="12.204" height="7.766"/>
		</g>
		<g>
			
				<rect x="216.004" y="435.15" style="fill:none;stroke:#263238;stroke-linecap:round;stroke-linejoin:round;stroke-miterlimit:10;" width="12.204" height="7.766"/>
			
				<rect x="252.061" y="435.15" style="fill:none;stroke:#263238;stroke-linecap:round;stroke-linejoin:round;stroke-miterlimit:10;" width="12.204" height="7.766"/>
			
				<rect x="267.78" y="435.15" style="fill:none;stroke:#263238;stroke-linecap:round;stroke-linejoin:round;stroke-miterlimit:10;" width="12.204" height="7.766"/>
			
				<rect x="223.215" y="445.69" style="fill:none;stroke:#263238;stroke-linecap:round;stroke-linejoin:round;stroke-miterlimit:10;" width="12.204" height="7.766"/>
			
				<rect x="259.231" y="445.69" style="fill:none;stroke:#263238;stroke-linecap:round;stroke-linejoin:round;stroke-miterlimit:10;" width="12.204" height="7.766"/>
		</g>
		<g>
			
				<line style="fill:#FFFFFF;stroke:#263238;stroke-linecap:round;stroke-linejoin:round;stroke-miterlimit:10;" x1="328.122" y1="426.537" x2="328.122" y2="457.008"/>
		</g>
		<g>
			
				<rect x="201.516" y="426.537" style="fill:#9E9E9E;stroke:#263238;stroke-linecap:round;stroke-linejoin:round;stroke-miterlimit:10;" width="7.807" height="30.127"/>
		</g>
		<g>
			
				<rect x="52.577" y="426.26" style="fill:#9E9E9E;stroke:#263238;stroke-linecap:round;stroke-linejoin:round;stroke-miterlimit:10;" width="8.747" height="30.404"/>
		</g>
		<g>
			
				<rect x="328.129" y="426.192" style="fill:#9E9E9E;stroke:#263238;stroke-linecap:round;stroke-linejoin:round;stroke-miterlimit:10;" width="9.816" height="30.472"/>
		</g>
		
			<line style="fill:#FFFFFF;stroke:#263238;stroke-linecap:round;stroke-linejoin:round;stroke-miterlimit:10;" x1="298.623" y1="426.537" x2="298.623" y2="456.767"/>
		
			<line style="fill:#FFFFFF;stroke:#263238;stroke-linecap:round;stroke-linejoin:round;stroke-miterlimit:10;" x1="141.111" y1="426.537" x2="141.111" y2="456.767"/>
		
			<line style="fill:#FFFFFF;stroke:#263238;stroke-linecap:round;stroke-linejoin:round;stroke-miterlimit:10;" x1="437.979" y1="426.537" x2="437.979" y2="456.767"/>
		
			<line style="fill:#FFFFFF;stroke:#263238;stroke-linecap:round;stroke-linejoin:round;stroke-miterlimit:10;" x1="597.817" y1="426.537" x2="597.817" y2="456.767"/>
		
			<line style="fill:#FFFFFF;stroke:#263238;stroke-linecap:round;stroke-linejoin:round;stroke-miterlimit:10;" x1="591.276" y1="426.537" x2="591.276" y2="456.767"/>
	</g>
</g>
<g id="Clouds">
	<path style="fill:none;stroke:#263238;stroke-linecap:round;stroke-linejoin:round;stroke-miterlimit:10;" d="M681.628,85.043
		c-11.543-0.297-22.094-6.408-27.941-16.366c-3.547-6.041-10.682-16.067-27.415-17.927c-42.569-4.73-51.335,28.038-61.127,29.997
		c-9.793,1.959-20.564-14.689-32.315-10.772c-11.751,3.917-19.585,14.689-24.481,16.647c-4.896,1.958-17.627-5.876-23.502-3.917
		c-5.875,1.958-10.772,5.875-12.73,8.813c-1.959,2.938-14.689-6.855-26.44-2.938s-19.585,8.813-23.502,10.772
		c-3.917,1.959-24.481,4.896-24.481,4.896h312.383c0,0-5.541-13.489-13.897-17.43C691.105,84.427,684.358,85.113,681.628,85.043z"/>
	<path style="fill:none;stroke:#263238;stroke-linecap:round;stroke-linejoin:round;stroke-miterlimit:10;" d="M433.113,52.566
		c-5.22-0.134-9.992-2.898-12.636-7.401c-1.604-2.732-4.831-7.266-12.398-8.107c-19.251-2.139-23.216,12.68-27.644,13.566
		c-4.429,0.886-9.3-6.643-14.615-4.871c-5.314,1.771-8.857,6.643-11.072,7.529c-2.214,0.886-7.972-2.657-10.629-1.771
		c-2.657,0.886-4.871,2.657-5.757,3.986c-0.886,1.328-6.643-3.1-11.957-1.329c-5.314,1.771-8.857,3.986-10.629,4.872
		c-1.771,0.886-11.072,2.214-11.072,2.214h141.273c0,0-2.506-6.1-6.285-7.883C437.4,52.288,434.348,52.598,433.113,52.566z"/>
	<path style="fill:none;stroke:#263238;stroke-linecap:round;stroke-linejoin:round;stroke-miterlimit:10;" d="M146.123,88.472
		c-5.22-0.134-9.992-2.898-12.636-7.401c-1.604-2.732-4.831-7.266-12.398-8.107c-19.251-2.139-23.216,12.68-27.644,13.566
		c-4.429,0.886-9.3-6.643-14.615-4.871c-5.314,1.771-8.857,6.643-11.072,7.529c-2.214,0.886-7.972-2.657-10.629-1.771
		c-2.657,0.886-4.871,2.657-5.757,3.986c-0.886,1.329-6.643-3.1-11.957-1.329c-5.314,1.771-8.857,3.986-10.629,4.871
		c-1.771,0.886-11.072,2.214-11.072,2.214h141.273c0,0-2.506-6.1-6.285-7.883C150.409,88.193,147.357,88.503,146.123,88.472z"/>
</g>
<g id="Text_1_">
	<g>
		<path style="fill:#FFFFFF;stroke:#263238;stroke-miterlimit:10;" d="M252.624,200.798h-22.938l-10.231,54.163h-12.343
			l14.143-41.373v-12.79h-34.039h-2.972H150.74h-0.535H128.35v11.078c-0.019-0.044-0.031-0.095-0.051-0.139
			c-1.56-3.558-3.985-6.319-7.213-8.209c-3.099-1.811-6.979-2.73-11.532-2.73H84.013v71.993h22.389v-27.042h1.501
			c3.923,0,7.542-0.585,10.757-1.738c3.664-1.313,6.6-3.699,8.726-7.093c0.356-0.57,0.67-1.185,0.963-1.822v37.695h21.147h1.243
			h32.796h3.837h28.714h5.325h16.511l2.201-13.443h2.268l2.123,13.443h21.53L252.624,200.798z M108.606,227.06
			c-0.051,0.223-0.109,0.342-0.086,0.342c0.002,0,0.004-0.001,0.007-0.002c-0.004,0.002-0.397,0.204-1.566,0.204h-0.558v-8.584
			h0.479c1.053,0,1.491,0.16,1.527,0.16c0.003,0,0.003-0.001,0.001-0.003c0.072,0.06,0.175,0.156,0.244,0.516
			c0.185,0.967,0.279,2.146,0.279,3.501C108.933,225.207,108.755,226.408,108.606,227.06z M150.74,255.806v-37.179h12.67
			L150.74,255.806z M185.067,254.961h-11.994l12.42-36.334h11.956L185.067,254.961z"/>
		<g>
			<path style="fill:#263238;" d="M88.172,268.632v-63.675h21.383c3.824,0,6.969,0.721,9.433,2.161
				c2.463,1.442,4.297,3.538,5.503,6.289c1.205,2.752,1.808,6.093,1.808,10.023c0,4.927-0.813,8.687-2.437,11.281
				c-1.625,2.594-3.826,4.39-6.604,5.385c-2.779,0.996-5.896,1.494-9.355,1.494h-5.66v27.042H88.172z M102.243,231.763h4.717
				c1.729,0,3.039-0.315,3.931-0.944c0.891-0.629,1.48-1.572,1.769-2.83c0.288-1.258,0.433-2.856,0.433-4.795
				c0-1.624-0.118-3.053-0.354-4.285c-0.235-1.231-0.799-2.213-1.69-2.948c-0.891-0.733-2.28-1.101-4.166-1.101h-4.638V231.763z"/>
			<path style="fill:#263238;" d="M132.509,268.632v-63.675h14.072v63.675H132.509z"/>
			<path style="fill:#263238;" d="M153.656,268.632v-8.49l15.565-45.674h-14.858v-9.512h28.693v7.94l-15.801,46.223h15.958v9.512
				H153.656z"/>
			<path style="fill:#263238;" d="M187.695,268.632v-8.49l15.565-45.674h-14.858v-9.512h28.693v7.94l-15.801,46.223h15.958v9.512
				H187.695z"/>
			<path style="fill:#263238;" d="M221.105,268.632l12.028-63.675h16.037l11.871,63.675h-12.971l-2.123-13.443h-9.355l-2.201,13.443
				H221.105z M237.849,246.778h6.761l-3.38-24.842L237.849,246.778z"/>
		</g>
	</g>
</g>
<g id="Pizza">
	<g>
		<path style="fill:#FFFFFF;stroke:#263238;stroke-linecap:round;stroke-linejoin:round;stroke-miterlimit:10;" d="M244.965,99.614
			c-15.937-21.894-39.225-37.389-65.576-43.63l-6.357-1.505l-1.586,2.506c-0.054,0.085-1.496,2.364-3.946,6.25l-0.002,0
			l-1.593,2.529c-8.735,13.866-24.625,39.185-39.785,63.84c-14.603,23.738-23.649,38.864-29.2,48.632
			c-8.539,14.994-8.834,17.327-8.352,18.927c0.015,0.049,0.03,0.098,0.046,0.146c0.01,0.029,0.02,0.058,0.029,0.087
			c0.018,0.052,0.036,0.103,0.054,0.155c0.003,0.007,0.005,0.015,0.008,0.023c0.059,0.164,0.15,0.308,0.226,0.461
			c0.07,0.142,0.124,0.294,0.208,0.425c0.064,0.1,0.15,0.18,0.221,0.274c0.125,0.164,0.242,0.336,0.389,0.479
			c0.138,0.135,0.301,0.241,0.457,0.357c0.104,0.077,0.195,0.171,0.305,0.238c0.277,0.17,0.575,0.309,0.891,0.414
			c0.695,0.232,1.355,0.263,1.966,0.263c0.001,0,0.001,0,0.001,0c0,0,0,0,0.001,0c0.001,0,0.003,0,0.004,0
			c0.176,0,0.389-0.005,0.622-0.014c0.058-0.002,0.126-0.006,0.188-0.008c0.197-0.008,0.409-0.019,0.641-0.033
			c0.062-0.004,0.126-0.008,0.19-0.012c0.283-0.017,0.589-0.038,0.919-0.063c0.011-0.001,0.022-0.002,0.034-0.003
			c13.86-1.028,67.906-7.995,112.77-13.925c20.955-2.768,39-5.191,48.034-6.408l0.257-0.035v0c3.088-0.416,5.088-0.687,5.711-0.771
			l3.321-0.449l0.267-3.34C268.489,148.431,260.901,121.507,244.965,99.614z"/>
		<path style="fill:#92E3A9;stroke:#263238;stroke-linecap:round;stroke-linejoin:round;stroke-miterlimit:10;" d="M174.959,59.209
			c0,0-85.979,135.821-82.24,137.067c3.738,1.246,169.465-21.183,169.465-21.183v0c4.301-53.767-31.267-102.631-83.753-115.062
			L174.959,59.209z"/>
		<path style="fill:#FFFFFF;stroke:#263238;stroke-linecap:round;stroke-linejoin:round;stroke-miterlimit:10;" d="M169.424,67.979
			c-18.943,30.069-79.865,127.243-76.705,128.297c3.203,1.068,125.325-15.245,160.226-19.938
			C253.977,125.388,219.472,80.099,169.424,67.979z"/>
		
			<ellipse transform="matrix(0.1602 -0.9871 0.9871 0.1602 -49.2272 277.4603)" style="fill:#92E3A9;stroke:#263238;stroke-linecap:round;stroke-linejoin:round;stroke-miterlimit:10;" cx="138.444" cy="167.66" rx="9.544" ry="9.544"/>
		
			<circle style="fill:#92E3A9;stroke:#263238;stroke-linecap:round;stroke-linejoin:round;stroke-miterlimit:10;" cx="169.244" cy="124.713" r="18.654"/>
		
			<circle style="fill:#92E3A9;stroke:#263238;stroke-linecap:round;stroke-linejoin:round;stroke-miterlimit:10;" cx="229.977" cy="157.682" r="8.242"/>
		
			<circle style="fill:#92E3A9;stroke:#263238;stroke-linecap:round;stroke-linejoin:round;stroke-miterlimit:10;" cx="198.743" cy="100.42" r="9.978"/>
		
			<ellipse transform="matrix(0.4332 -0.9013 0.9013 0.4332 -34.7673 263.9554)" style="fill:#92E3A9;stroke:#263238;stroke-linecap:round;stroke-linejoin:round;stroke-miterlimit:10;" cx="192.478" cy="159.62" rx="12.58" ry="12.58"/>
	</g>
</g>
<g id="Tables">
	<g>
		<g>
			<g>
				
					<line style="fill:#FFFFFF;stroke:#263238;stroke-width:1.5;stroke-linecap:round;stroke-linejoin:round;stroke-miterlimit:10;" x1="54.63" y1="421.162" x2="48.549" y2="456.973"/>
				
					<line style="fill:#FFFFFF;stroke:#263238;stroke-width:1.5;stroke-linecap:round;stroke-linejoin:round;stroke-miterlimit:10;" x1="75.576" y1="421.162" x2="81.657" y2="456.973"/>
			</g>
			<g>
				
					<line style="fill:#FFFFFF;stroke:#263238;stroke-width:1.5;stroke-linecap:round;stroke-linejoin:round;stroke-miterlimit:10;" x1="80.291" y1="421.162" x2="74.21" y2="456.973"/>
				
					<line style="fill:#FFFFFF;stroke:#263238;stroke-width:1.5;stroke-linecap:round;stroke-linejoin:round;stroke-miterlimit:10;" x1="101.238" y1="421.162" x2="107.319" y2="456.973"/>
			</g>
			<g>
				
					<rect x="44.72" y="419.765" style="fill:#FFFFFF;stroke:#263238;stroke-linecap:round;stroke-linejoin:round;stroke-miterlimit:10;" width="65.779" height="2.266"/>
				
					<rect x="85.021" y="419.765" style="fill:#FFFFFF;stroke:#263238;stroke-linecap:round;stroke-linejoin:round;stroke-miterlimit:10;" width="25.478" height="2.266"/>
			</g>
		</g>
		<g>
			
				<line style="fill:none;stroke:#263238;stroke-width:1.5;stroke-linecap:round;stroke-linejoin:round;stroke-miterlimit:10;" x1="90.377" y1="438.038" x2="85.822" y2="457.233"/>
			
				<line style="fill:none;stroke:#263238;stroke-width:1.5;stroke-linecap:round;stroke-linejoin:round;stroke-miterlimit:10;" x1="99.066" y1="438.038" x2="94.511" y2="457.233"/>
			<path style="fill:#92E3A9;stroke:#263238;stroke-linecap:round;stroke-linejoin:round;stroke-miterlimit:10;" d="
				M113.762,436.002l-25.186,0.125c-0.219,0-0.453,0.156-0.483,0.414c0,0.004-0.001,0.008-0.002,0.012
				c-0.058,0.314,0.07,0.636,0.335,0.7c11.13,2.666,22.081,0.58,24.967-0.066c0.429-0.096,0.381-0.749,0.381-0.749L113.762,436.002z
				"/>
			<path style="fill:none;stroke:#263238;stroke-width:1.5;stroke-linecap:round;stroke-linejoin:round;stroke-miterlimit:10;" d="
				M101.329,426.023c0,0,0.939,6.442,0.073,11.636c-0.866,5.194-3.463,19.879-3.463,19.879"/>
			<path style="fill:none;stroke:#263238;stroke-width:1.5;stroke-linecap:round;stroke-linejoin:round;stroke-miterlimit:10;" d="
				M112.974,426.023c0,0-0.632,5.542,0.234,10.736c0.866,5.194,3.463,19.879,3.463,19.879"/>
			<path style="fill:#92E3A9;stroke:#263238;stroke-linecap:round;stroke-linejoin:round;stroke-miterlimit:10;" d="
				M114.773,425.174c-0.051,0.495-0.441,0.888-0.936,0.942l-0.282,0.031c-4.892,0.538-7.445,0.536-12.225-0.006l0,0
				c-0.576-0.065-0.992-0.582-0.932-1.159l0.933-10.277c0.029-0.319,0.192-0.612,0.448-0.805l0,0
				c0.231-0.174,0.518-0.25,0.805-0.218c4.81,0.549,7.394,0.55,12.317,0.004c0.269-0.03,0.537,0.064,0.727,0.257l0,0
				c0.186,0.189,0.278,0.452,0.25,0.715L114.773,425.174z"/>
		</g>
		<g>
			
				<line style="fill:none;stroke:#263238;stroke-width:1.5;stroke-linecap:round;stroke-linejoin:round;stroke-miterlimit:10;" x1="53.689" y1="438.038" x2="58.244" y2="457.233"/>
			
				<line style="fill:none;stroke:#263238;stroke-width:1.5;stroke-linecap:round;stroke-linejoin:round;stroke-miterlimit:10;" x1="45" y1="438.038" x2="49.555" y2="457.233"/>
			<path style="fill:#92E3A9;stroke:#263238;stroke-linecap:round;stroke-linejoin:round;stroke-miterlimit:10;" d="M30.303,436.002
				l25.186,0.125c0.219,0,0.453,0.156,0.483,0.414c0,0.004,0.001,0.008,0.002,0.012c0.058,0.314-0.07,0.636-0.335,0.7
				c-11.13,2.666-22.081,0.58-24.967-0.066c-0.429-0.096-0.381-0.749-0.381-0.749L30.303,436.002z"/>
			<path style="fill:none;stroke:#263238;stroke-width:1.5;stroke-linecap:round;stroke-linejoin:round;stroke-miterlimit:10;" d="
				M42.736,426.023c0,0-0.939,6.442-0.073,11.636c0.866,5.194,3.463,19.879,3.463,19.879"/>
			<path style="fill:none;stroke:#263238;stroke-width:1.5;stroke-linecap:round;stroke-linejoin:round;stroke-miterlimit:10;" d="
				M31.091,426.023c0,0,0.632,5.542-0.234,10.736c-0.866,5.194-3.463,19.879-3.463,19.879"/>
			<path style="fill:#92E3A9;stroke:#263238;stroke-linecap:round;stroke-linejoin:round;stroke-miterlimit:10;" d="M29.293,425.174
				c0.051,0.495,0.441,0.888,0.936,0.942l0.282,0.031c4.892,0.538,7.445,0.536,12.225-0.006l0,0
				c0.576-0.065,0.992-0.582,0.932-1.159l-0.933-10.277c-0.029-0.319-0.192-0.612-0.448-0.805l0,0
				c-0.231-0.174-0.518-0.25-0.805-0.218c-4.81,0.549-7.394,0.55-12.317,0.004c-0.269-0.03-0.537,0.064-0.727,0.257l0,0
				c-0.186,0.189-0.278,0.452-0.25,0.715L29.293,425.174z"/>
		</g>
	</g>
	<g>
		<g>
			<g>
				
					<line style="fill:#FFFFFF;stroke:#263238;stroke-width:1.5;stroke-linecap:round;stroke-linejoin:round;stroke-miterlimit:10;" x1="228.694" y1="421.162" x2="222.613" y2="456.973"/>
				
					<line style="fill:#FFFFFF;stroke:#263238;stroke-width:1.5;stroke-linecap:round;stroke-linejoin:round;stroke-miterlimit:10;" x1="249.64" y1="421.162" x2="255.721" y2="456.973"/>
			</g>
			<g>
				
					<line style="fill:#FFFFFF;stroke:#263238;stroke-width:1.5;stroke-linecap:round;stroke-linejoin:round;stroke-miterlimit:10;" x1="254.355" y1="421.162" x2="248.274" y2="456.973"/>
				
					<line style="fill:#FFFFFF;stroke:#263238;stroke-width:1.5;stroke-linecap:round;stroke-linejoin:round;stroke-miterlimit:10;" x1="275.302" y1="421.162" x2="281.383" y2="456.973"/>
			</g>
			<g>
				
					<rect x="218.784" y="419.765" style="fill:#FFFFFF;stroke:#263238;stroke-linecap:round;stroke-linejoin:round;stroke-miterlimit:10;" width="65.779" height="2.266"/>
				
					<rect x="259.085" y="419.765" style="fill:#FFFFFF;stroke:#263238;stroke-linecap:round;stroke-linejoin:round;stroke-miterlimit:10;" width="25.478" height="2.266"/>
			</g>
		</g>
		<g>
			
				<line style="fill:none;stroke:#263238;stroke-width:1.5;stroke-linecap:round;stroke-linejoin:round;stroke-miterlimit:10;" x1="264.44" y1="438.038" x2="259.886" y2="457.233"/>
			
				<line style="fill:none;stroke:#263238;stroke-width:1.5;stroke-linecap:round;stroke-linejoin:round;stroke-miterlimit:10;" x1="273.13" y1="438.038" x2="268.575" y2="457.233"/>
			<path style="fill:#92E3A9;stroke:#263238;stroke-linecap:round;stroke-linejoin:round;stroke-miterlimit:10;" d="
				M287.826,436.002l-25.186,0.125c-0.219,0-0.453,0.156-0.483,0.414c0,0.004-0.001,0.008-0.002,0.012
				c-0.058,0.314,0.07,0.636,0.335,0.7c11.13,2.666,22.081,0.58,24.967-0.066c0.429-0.096,0.381-0.749,0.381-0.749L287.826,436.002z
				"/>
			<path style="fill:none;stroke:#263238;stroke-width:1.5;stroke-linecap:round;stroke-linejoin:round;stroke-miterlimit:10;" d="
				M275.393,426.023c0,0,0.939,6.442,0.073,11.636c-0.866,5.194-3.463,19.879-3.463,19.879"/>
			<path style="fill:none;stroke:#263238;stroke-width:1.5;stroke-linecap:round;stroke-linejoin:round;stroke-miterlimit:10;" d="
				M287.038,426.023c0,0-0.632,5.542,0.234,10.736c0.866,5.194,3.463,19.879,3.463,19.879"/>
			<path style="fill:#92E3A9;stroke:#263238;stroke-linecap:round;stroke-linejoin:round;stroke-miterlimit:10;" d="
				M288.836,425.174c-0.051,0.495-0.441,0.888-0.936,0.942l-0.282,0.031c-4.892,0.538-7.445,0.536-12.225-0.006l0,0
				c-0.576-0.065-0.991-0.582-0.932-1.159l0.933-10.277c0.029-0.319,0.192-0.612,0.448-0.805l0,0
				c0.231-0.174,0.518-0.25,0.805-0.218c4.81,0.549,7.394,0.55,12.317,0.004c0.269-0.03,0.537,0.064,0.727,0.257l0,0
				c0.186,0.189,0.278,0.452,0.25,0.715L288.836,425.174z"/>
		</g>
		<g>
			
				<line style="fill:none;stroke:#263238;stroke-width:1.5;stroke-linecap:round;stroke-linejoin:round;stroke-miterlimit:10;" x1="227.753" y1="438.038" x2="232.308" y2="457.233"/>
			
				<line style="fill:none;stroke:#263238;stroke-width:1.5;stroke-linecap:round;stroke-linejoin:round;stroke-miterlimit:10;" x1="219.064" y1="438.038" x2="223.619" y2="457.233"/>
			<path style="fill:#92E3A9;stroke:#263238;stroke-linecap:round;stroke-linejoin:round;stroke-miterlimit:10;" d="
				M204.367,436.002l25.186,0.125c0.219,0,0.453,0.156,0.483,0.414c0,0.004,0.001,0.008,0.002,0.012
				c0.058,0.314-0.07,0.636-0.335,0.7c-11.13,2.666-22.081,0.58-24.967-0.066c-0.429-0.096-0.381-0.749-0.381-0.749L204.367,436.002
				z"/>
			<path style="fill:none;stroke:#263238;stroke-width:1.5;stroke-linecap:round;stroke-linejoin:round;stroke-miterlimit:10;" d="
				M216.8,426.023c0,0-0.939,6.442-0.073,11.636c0.866,5.194,3.463,19.879,3.463,19.879"/>
			<path style="fill:none;stroke:#263238;stroke-width:1.5;stroke-linecap:round;stroke-linejoin:round;stroke-miterlimit:10;" d="
				M205.155,426.023c0,0,0.632,5.542-0.234,10.736c-0.866,5.194-3.463,19.879-3.463,19.879"/>
			<path style="fill:#92E3A9;stroke:#263238;stroke-linecap:round;stroke-linejoin:round;stroke-miterlimit:10;" d="
				M203.357,425.174c0.051,0.495,0.441,0.888,0.936,0.942l0.282,0.031c4.892,0.538,7.445,0.536,12.225-0.006l0,0
				c0.576-0.065,0.992-0.582,0.932-1.159l-0.933-10.277c-0.029-0.319-0.192-0.612-0.448-0.805l0,0
				c-0.231-0.174-0.518-0.25-0.805-0.218c-4.81,0.549-7.394,0.55-12.317,0.004c-0.269-0.03-0.537,0.064-0.727,0.257l0,0
				c-0.186,0.189-0.278,0.452-0.25,0.715L203.357,425.174z"/>
		</g>
	</g>
</g>
<g id="Floor">
	
		<line style="fill:none;stroke:#263238;stroke-linecap:round;stroke-linejoin:round;stroke-miterlimit:10;" x1="10.368" y1="456.79" x2="719.598" y2="456.79"/>
</g>
</svg>
